<svg width="15" height="13" viewBox="0 0 15 13" fill="none" xmlns="http://www.w3.org/2000/svg">
<path d="M5.04535 0H10.9254C13.1654 0 14.9854 1.69 14.9854 3.77V9.23C14.9854 10.2299 14.5576 11.1888 13.7962 11.8958C13.0348 12.6028 12.0021 13 10.9254 13H5.04535C2.80535 13 0.985352 11.31 0.985352 9.23V3.77C0.985352 2.77013 1.4131 1.81122 2.1745 1.10421C2.9359 0.397195 3.96857 0 5.04535 0ZM4.90535 1.3C4.23701 1.3 3.59603 1.54654 3.12344 1.98537C2.65085 2.42421 2.38535 3.01939 2.38535 3.64V9.36C2.38535 10.6535 3.51235 11.7 4.90535 11.7H11.0654C11.7337 11.7 12.3747 11.4535 12.8473 11.0146C13.3199 10.5758 13.5854 9.98061 13.5854 9.36V3.64C13.5854 2.3465 12.4584 1.3 11.0654 1.3H4.90535ZM11.6604 2.275C11.8924 2.275 12.115 2.3606 12.2791 2.51298C12.4432 2.66535 12.5354 2.87201 12.5354 3.0875C12.5354 3.30299 12.4432 3.50965 12.2791 3.66202C12.115 3.8144 11.8924 3.9 11.6604 3.9C11.4283 3.9 11.2057 3.8144 11.0416 3.66202C10.8775 3.50965 10.7854 3.30299 10.7854 3.0875C10.7854 2.87201 10.8775 2.66535 11.0416 2.51298C11.2057 2.3606 11.4283 2.275 11.6604 2.275ZM7.98535 3.25C8.91361 3.25 9.80385 3.59241 10.4602 4.2019C11.1166 4.8114 11.4854 5.63805 11.4854 6.5C11.4854 7.36195 11.1166 8.1886 10.4602 8.7981C9.80385 9.40759 8.91361 9.75 7.98535 9.75C7.05709 9.75 6.16685 9.40759 5.51048 8.7981C4.8541 8.1886 4.48535 7.36195 4.48535 6.5C4.48535 5.63805 4.8541 4.8114 5.51048 4.2019C6.16685 3.59241 7.05709 3.25 7.98535 3.25ZM7.98535 4.55C7.4284 4.55 6.89425 4.75545 6.50043 5.12114C6.1066 5.48684 5.88535 5.98283 5.88535 6.5C5.88535 7.01717 6.1066 7.51316 6.50043 7.87886C6.89425 8.24455 7.4284 8.45 7.98535 8.45C8.54231 8.45 9.07645 8.24455 9.47028 7.87886C9.8641 7.51316 10.0854 7.01717 10.0854 6.5C10.0854 5.98283 9.8641 5.48684 9.47028 5.12114C9.07645 4.75545 8.54231 4.55 7.98535 4.55Z" fill="#0017B7"/>
</svg>
