<svg width="1440" height="399" viewBox="0 0 1440 399" fill="none" xmlns="http://www.w3.org/2000/svg">
<g opacity="0.15">
<path opacity="0.2" d="M16.3319 319.828V319.828C103.894 354.634 202.621 347.68 284.652 300.929L374.041 249.985C456.642 202.909 550.874 180.319 645.708 184.859L1010.4 202.318C1056.91 204.545 1103.53 200.254 1148.89 189.571L1431.05 123.112" stroke="#0017B7"/>
<path opacity="0.4" d="M12.31 320.135V320.135C98.5525 358.008 197.41 354.542 280.947 310.717L371.772 263.067C456.011 218.873 551.053 199.595 645.754 207.493L1009.03 237.79C1055.48 241.664 1102.26 239.017 1148 229.927L1431.98 173.496" stroke="#0017B7"/>
<path opacity="0.6" d="M8.27935 320.352V320.352C93.0967 361.243 191.963 361.265 276.904 320.414L369.055 276.095C454.829 234.842 550.56 218.907 645.006 230.158L1006.44 273.216C1052.77 278.735 1099.65 277.74 1145.72 270.258L1431.17 223.899" stroke="#0017B7"/>
<path opacity="0.8" d="M4.24269 320.481V320.481C87.5321 364.334 186.285 367.841 272.527 330.01L365.893 289.052C453.097 250.798 549.394 238.231 643.462 252.826L1002.63 308.555C1048.77 315.715 1095.7 316.374 1142.03 310.513L1428.61 274.261" stroke="#0017B7"/>
<path d="M0.202926 320.519V320.519C81.8633 367.276 180.382 374.261 267.818 339.491L362.29 301.924C450.815 266.721 547.555 257.542 641.124 275.468L997.604 343.763C1043.5 352.557 1090.41 354.872 1136.95 350.641L1424.31 324.519" stroke="#0017B7"/>
</g>
</svg>
