<svg width="12" height="13" viewBox="0 0 12 13" fill="none" xmlns="http://www.w3.org/2000/svg">
<path fill-rule="evenodd" clip-rule="evenodd" d="M2.62861 12.0456H0.166504V4.41455H2.62861V12.0456Z" fill="#0017B7"/>
<path fill-rule="evenodd" clip-rule="evenodd" d="M1.39024 2.71847H1.37625C0.641504 2.71847 0.166504 2.15295 0.166504 1.4462C0.166504 0.724496 0.655971 0.174805 1.40466 0.174805C2.15335 0.174805 2.61441 0.724496 2.62861 1.4462C2.62861 2.15295 2.15335 2.71847 1.39024 2.71847Z" fill="#0017B7"/>
<path fill-rule="evenodd" clip-rule="evenodd" d="M11.6562 12.0449H9.23687V8.05605C9.23687 7.05414 8.88675 6.37047 8.01089 6.37047C7.34246 6.37047 6.94432 6.83136 6.76946 7.27652C6.70549 7.43606 6.68978 7.65834 6.68978 7.88117V12.0451H4.27002C4.27002 12.0451 4.30191 5.28894 4.27002 4.58934H6.68978V5.64538C7.01091 5.13772 7.58603 4.41406 8.87062 4.41406C10.4627 4.41406 11.6563 5.4799 11.6563 7.76998L11.6562 12.0449Z" fill="#0017B7"/>
</svg>
