<svg width="23" height="30" viewBox="0 0 23 30" fill="none" xmlns="http://www.w3.org/2000/svg">
<path d="M11.5 6.75C12.5893 6.75 13.634 7.14509 14.4042 7.84835C15.1744 8.55161 15.6071 9.50544 15.6071 10.5C15.6071 10.9925 15.5009 11.4801 15.2945 11.9351C15.0881 12.39 14.7856 12.8034 14.4042 13.1517C14.0228 13.4999 13.57 13.7761 13.0717 13.9645C12.5734 14.153 12.0394 14.25 11.5 14.25C10.4107 14.25 9.36605 13.8549 8.59581 13.1517C7.82557 12.4484 7.39286 11.4946 7.39286 10.5C7.39286 9.50544 7.82557 8.55161 8.59581 7.84835C9.36605 7.14509 10.4107 6.75 11.5 6.75ZM11.5 0C14.55 0 17.4751 1.10625 19.6317 3.07538C21.7884 5.04451 23 7.71523 23 10.5C23 18.375 11.5 30 11.5 30C11.5 30 0 18.375 0 10.5C0 7.71523 1.2116 5.04451 3.36827 3.07538C5.52494 1.10625 8.45001 0 11.5 0ZM11.5 3C9.32144 3 7.2321 3.79018 5.69162 5.1967C4.15115 6.60322 3.28571 8.51088 3.28571 10.5C3.28571 12 3.28571 15 11.5 25.065C19.7143 15 19.7143 12 19.7143 10.5C19.7143 8.51088 18.8489 6.60322 17.3084 5.1967C15.7679 3.79018 13.6786 3 11.5 3Z" fill="#0017B7"/>
</svg>
