<svg width="29" height="23" viewBox="0 0 29 23" fill="none" xmlns="http://www.w3.org/2000/svg">
<path d="M4.57895 0H24.4211C25.6355 0 26.8001 0.484642 27.6589 1.34731C28.5176 2.20998 29 3.38 29 4.6V18.4C29 19.62 28.5176 20.79 27.6589 21.6527C26.8001 22.5154 25.6355 23 24.4211 23H4.57895C3.36454 23 2.19986 22.5154 1.34114 21.6527C0.482424 20.79 0 19.62 0 18.4V4.6C0 3.38 0.482424 2.20998 1.34114 1.34731C2.19986 0.484642 3.36454 0 4.57895 0ZM4.57895 1.53333C3.81579 1.53333 3.14421 1.794 2.62526 2.254L14.5 9.96667L26.3747 2.254C25.8558 1.794 25.1842 1.53333 24.4211 1.53333H4.57895ZM14.5 11.822L1.72474 3.496C1.60263 3.83333 1.52632 4.21667 1.52632 4.6V18.4C1.52632 19.2133 1.84793 19.9933 2.42041 20.5685C2.99289 21.1436 3.76934 21.4667 4.57895 21.4667H24.4211C25.2307 21.4667 26.0071 21.1436 26.5796 20.5685C27.1521 19.9933 27.4737 19.2133 27.4737 18.4V4.6C27.4737 4.21667 27.3974 3.83333 27.2753 3.496L14.5 11.822Z" fill="#0017B7"/>
</svg>
