<svg width="430" height="565" viewBox="0 0 430 565" fill="none" xmlns="http://www.w3.org/2000/svg">
<g opacity="0.4">
<path opacity="0.0416667" d="M477.152 534.842L432.285 429.399C406.649 369.149 364.005 315.363 308.643 273.449V273.449C249.131 228.394 204.402 169.686 179.626 104.114L154.158 36.7094" stroke="#8C9AFF"/>
<path opacity="0.0833333" d="M480.216 536.653L431.455 432.709C403.588 373.306 359.027 320.939 302.201 280.814V280.814C241.112 237.679 194.285 180.462 167.071 115.7L139.111 49.1627" stroke="#8C9AFF"/>
<path opacity="0.125" d="M483.337 538.426L430.754 436.1C400.698 377.61 354.283 326.72 296.068 288.429V288.429C233.485 247.264 184.627 191.599 155.014 127.722L124.604 62.1276" stroke="#8C9AFF"/>
<path opacity="0.166667" d="M486.512 540.159L430.185 439.566C397.982 382.057 349.778 332.698 290.253 296.283V296.283C226.259 257.134 175.438 203.081 143.468 140.163L110.655 75.5854" stroke="#8C9AFF"/>
<path opacity="0.208333" d="M489.741 541.852L429.749 443.105C395.446 386.642 345.52 338.868 284.763 304.369V304.369C219.443 267.278 166.731 214.897 132.449 153.008L97.2807 89.5204" stroke="#8C9AFF"/>
<path opacity="0.25" d="M493.024 543.5L429.452 446.71C393.096 391.358 341.516 345.218 279.609 312.673V312.673C213.05 277.682 158.519 227.026 121.973 166.24L84.4992 103.911" stroke="#8C9AFF"/>
<path opacity="0.291667" d="M496.356 545.104L429.293 450.379C390.935 396.2 337.772 351.743 274.796 321.186V321.186C207.086 288.332 150.81 239.456 112.05 179.84L72.3252 118.741" stroke="#8C9AFF"/>
<path opacity="0.333333" d="M499.739 546.661L429.277 454.107C388.969 401.16 334.294 358.433 270.333 329.897V329.897C201.561 299.214 143.616 252.169 102.695 193.792L60.7746 133.988" stroke="#8C9AFF"/>
<path opacity="0.375" d="M503.166 548.171L429.403 457.889C387.2 406.235 331.085 365.281 266.223 338.795V338.795C196.48 310.316 136.943 265.149 93.9179 208.077L49.8591 149.635" stroke="#8C9AFF"/>
<path opacity="0.416667" d="M506.64 549.63L429.675 461.719C385.634 411.416 328.154 372.276 262.476 347.867V347.867C191.853 321.62 130.804 278.378 85.7316 222.676L39.5949 165.658" stroke="#8C9AFF"/>
<path opacity="0.458333" d="M510.156 551.038L430.091 465.595C384.272 416.698 325.503 379.41 259.094 357.103V357.103C187.685 333.115 125.202 291.84 78.1437 237.57L29.9914 182.039" stroke="#8C9AFF"/>
<path opacity="0.5" d="M513.713 552.395L430.656 469.511C383.119 422.073 323.137 386.675 256.084 366.49V366.49C183.982 344.784 120.148 305.518 71.166 252.741L21.0623 198.755" stroke="#8C9AFF"/>
<path opacity="0.541667" d="M517.309 553.698L431.37 473.463C382.179 427.536 321.061 394.062 253.452 376.018V376.018C180.75 356.614 115.647 319.394 64.8071 268.169L12.8185 215.785" stroke="#8C9AFF"/>
<path opacity="0.583333" d="M520.942 554.945L432.233 477.444C381.452 433.078 319.276 401.56 251.2 385.672V385.672C177.993 368.587 111.704 333.45 59.0732 283.833L5.26795 233.108" stroke="#8C9AFF"/>
<path opacity="0.625" d="M524.607 556.137L433.245 481.452C380.94 438.696 317.787 409.161 249.33 395.443V395.443C175.713 380.691 108.322 347.669 53.9708 299.715L-1.58105 250.701" stroke="#8C9AFF"/>
<path opacity="0.666667" d="M528.305 557.271L434.408 485.481C380.649 444.378 316.596 416.856 247.848 405.317V405.317C173.916 392.909 105.509 362.032 49.5079 315.793L-7.71886 268.542" stroke="#8C9AFF"/>
<path opacity="0.708333" d="M532.033 558.347L435.722 489.526C380.578 450.121 315.708 424.634 246.756 415.282V415.282C172.605 405.225 103.268 376.522 45.6896 332.048L-13.1387 286.608" stroke="#8C9AFF"/>
<path opacity="0.75" d="M535.788 559.364L437.187 493.583C380.729 455.917 315.121 432.487 246.055 425.326V425.326C171.78 417.625 101.599 391.12 42.5193 348.458L-17.8356 304.876" stroke="#8C9AFF"/>
<path opacity="0.791667" d="M539.569 560.32L438.804 497.646C381.104 461.758 314.841 440.406 245.749 435.436V435.436C171.445 430.092 100.507 405.809 40.0028 365.005L-21.8022 323.323" stroke="#8C9AFF"/>
<path opacity="0.833333" d="M543.372 561.216L440.57 501.711C381.703 467.637 314.866 448.379 245.836 445.6V445.6C171.599 442.612 99.9918 420.569 38.141 381.665L-25.0366 341.927" stroke="#8C9AFF"/>
<path opacity="0.875" d="M547.195 562.05L442.486 505.773C382.528 473.548 315.199 456.398 246.319 455.805V455.805C172.243 455.168 100.054 435.383 36.9368 398.42L-27.5342 360.664" stroke="#8C9AFF"/>
<path opacity="0.916667" d="M551.036 562.823L444.552 509.828C383.578 479.483 315.84 464.454 247.196 466.04V466.04C173.375 467.745 100.694 450.234 36.3909 415.248L-29.2935 379.512" stroke="#8C9AFF"/>
<path opacity="0.958333" d="M554.893 563.532L446.768 513.87C384.856 485.435 316.79 472.535 248.47 476.29V476.29C174.998 480.328 101.911 465.101 36.5053 432.128L-30.3112 398.445" stroke="#8C9AFF"/>
<path d="M558.729 564.172L449.106 517.943C386.34 491.474 318.024 480.742 250.099 486.679V486.679C177.052 493.064 103.645 480.164 37.2269 449.269L-30.6318 417.705" stroke="#8C9AFF"/>
</g>
</svg>
