<svg width="1102" height="589" viewBox="0 0 1102 589" fill="none" xmlns="http://www.w3.org/2000/svg">
<g opacity="0.4">
<path opacity="0.0416667" d="M144.146 474.923L259.16 337.312C324.872 258.69 415.35 196.359 521.433 156.628V156.628C635.467 113.92 731.301 45.1618 797.783 -41.644L866.144 -130.903" stroke="#8C9AFF"/>
<path opacity="0.0833333" d="M138.483 476.372L259.155 342.523C328.122 266.025 421.074 206.574 528.808 170.058V170.058C644.624 130.802 743.19 65.1019 813.289 -19.5648L885.296 -106.537" stroke="#8C9AFF"/>
<path opacity="0.125" d="M132.742 477.743L258.908 347.801C331.039 273.511 426.339 216.998 535.583 183.734V183.734C653.029 147.971 754.195 85.3912 827.817 2.96035L903.37 -81.6315" stroke="#8C9AFF"/>
<path opacity="0.166667" d="M126.928 479.033L258.417 353.14C333.617 281.14 431.138 227.617 541.748 197.637V197.637C660.671 165.404 764.3 106.003 841.351 25.9019L920.346 -56.2204" stroke="#8C9AFF"/>
<path opacity="0.208333" d="M121.045 480.24L257.681 358.53C335.849 288.901 435.462 238.415 547.294 211.749V211.749C667.539 183.077 773.496 126.909 853.874 49.2288L936.203 -30.3378" stroke="#8C9AFF"/>
<path opacity="0.25" d="M115.094 481.363L256.697 363.965C337.73 296.783 439.305 249.38 552.214 226.052V226.052C673.624 200.968 781.769 148.082 865.368 72.9112L950.922 -4.01694" stroke="#8C9AFF"/>
<path opacity="0.291667" d="M109.08 482.399L255.463 369.438C339.256 304.776 442.66 260.496 556.499 240.527V240.527C678.916 219.052 789.109 169.495 875.821 96.9181L964.485 22.7076" stroke="#8C9AFF"/>
<path opacity="0.333333" d="M103.007 483.347L253.979 374.94C340.421 312.87 445.521 271.749 560.143 255.153V255.153C683.408 237.306 795.507 191.12 885.22 121.218L976.877 49.8003" stroke="#8C9AFF"/>
<path opacity="0.375" d="M96.878 484.205L252.241 380.466C341.221 321.053 447.884 283.124 563.14 269.913V269.913C687.093 255.705 800.955 212.928 893.552 145.779L988.083 77.2272" stroke="#8C9AFF"/>
<path opacity="0.416667" d="M90.6969 484.973L250.251 386.007C341.653 329.314 449.744 294.607 565.484 284.787V284.787C689.965 274.226 805.447 234.891 900.807 170.57L998.09 104.952" stroke="#8C9AFF"/>
<path opacity="0.458333" d="M84.4679 485.648L248.008 391.556C341.714 337.643 451.097 306.182 567.173 299.756V299.756C692.021 292.845 808.977 256.981 906.977 195.558L1006.89 132.938" stroke="#8C9AFF"/>
<path opacity="0.5" d="M78.194 486.229L245.51 397.106C341.4 346.029 451.939 317.835 568.202 314.8V314.8C693.255 311.537 811.541 279.17 912.055 220.712L1014.46 161.152" stroke="#8C9AFF"/>
<path opacity="0.541667" d="M71.8798 486.716L242.759 402.648C340.709 354.46 452.269 329.55 568.568 329.901V329.901C693.666 330.278 813.135 301.43 916.033 245.999L1020.81 189.555" stroke="#8C9AFF"/>
<path opacity="0.583333" d="M65.5297 487.108L239.756 408.177C339.642 362.925 452.083 341.314 568.271 345.038V345.038C693.253 349.044 813.759 323.732 918.908 271.387L1025.92 218.114" stroke="#8C9AFF"/>
<path opacity="0.625" d="M59.1468 487.403L236.5 413.684C338.194 371.413 451.381 353.111 567.309 360.193V360.193C692.015 367.81 813.411 346.048 920.676 296.844L1029.8 246.79" stroke="#8C9AFF"/>
<path opacity="0.666667" d="M52.7359 487.601L232.993 419.162C336.366 379.914 450.162 364.926 565.682 375.345V375.345C689.953 386.554 812.092 368.35 921.336 322.338L1032.42 275.548" stroke="#8C9AFF"/>
<path opacity="0.708333" d="M46.3009 487.701L229.237 424.604C334.159 388.415 448.426 376.745 563.392 390.477V390.477C687.069 405.25 809.803 390.61 920.886 347.835L1033.81 304.353" stroke="#8C9AFF"/>
<path opacity="0.75" d="M39.8458 487.704L225.234 430.003C331.571 396.906 446.173 388.553 560.439 405.569V405.569C683.366 423.875 806.549 412.801 919.329 373.305L1033.94 333.167" stroke="#8C9AFF"/>
<path opacity="0.791667" d="M33.3749 487.607L220.985 435.352C328.604 405.376 443.404 400.334 556.827 420.601V420.601C678.848 442.405 802.332 434.894 916.666 398.714L1032.83 361.955" stroke="#8C9AFF"/>
<path opacity="0.833333" d="M26.8921 487.412L216.492 440.643C325.259 413.814 440.121 412.075 552.557 435.555V435.555C673.519 460.817 797.158 456.863 912.901 424.032L1030.48 390.681" stroke="#8C9AFF"/>
<path opacity="0.875" d="M20.4022 487.117L211.76 445.87C321.539 422.208 436.327 423.76 547.636 450.413V450.413C667.385 479.087 791.034 478.68 908.039 449.227L1026.89 419.31" stroke="#8C9AFF"/>
<path opacity="0.916667" d="M13.909 486.724L206.789 451.027C317.443 430.548 432.024 435.376 542.067 465.156V465.156C660.455 497.193 783.968 500.319 902.087 474.268L1022.06 447.807" stroke="#8C9AFF"/>
<path opacity="0.958333" d="M7.41673 486.232L201.585 456.106C312.977 438.824 427.216 446.909 535.856 479.765V479.765C652.735 515.113 775.968 521.754 895.052 499.123L1016.01 476.136" stroke="#8C9AFF"/>
<path d="M0.975608 485.646L196.165 461.168C308.14 447.127 421.9 458.485 529.014 494.403V494.403C644.25 533.044 767.055 543.221 886.934 524.063L1008.71 504.602" stroke="#8C9AFF"/>
</g>
</svg>
