<svg width="25" height="29" viewBox="0 0 25 29" fill="none" xmlns="http://www.w3.org/2000/svg">
<path d="M4.91667 3.22222C5 4.65611 5.20833 6.05778 5.54167 7.395L3.875 9.32833C3.30556 7.395 2.94444 5.34889 2.81944 3.22222H4.91667ZM18.6111 22.5878C19.7917 22.9744 21 23.2161 22.2222 23.3128V25.7133C20.3889 25.5683 18.625 25.1494 16.9444 24.505L18.6111 22.5878ZM6.25 0H1.38889C0.625 0 0 0.725 0 1.61111C0 16.7394 10.5694 29 23.6111 29C24.375 29 25 28.275 25 27.3889V21.7661C25 20.88 24.375 20.155 23.6111 20.155C21.8889 20.155 20.2083 19.8328 18.6528 19.2367C18.5149 19.1787 18.3688 19.1513 18.2222 19.1561C17.8611 19.1561 17.5139 19.3172 17.2361 19.6233L14.1806 23.1678C10.2436 20.8323 7.04112 17.1174 5.02778 12.5506L8.08333 9.00611C8.47222 8.555 8.58333 7.92667 8.43055 7.36278C7.90368 5.50687 7.63641 3.56506 7.63889 1.61111C7.63889 0.725 7.01389 0 6.25 0Z" fill="#0017B7"/>
</svg>
