<svg width="12" height="11" viewBox="0 0 12 11" fill="none" xmlns="http://www.w3.org/2000/svg">
<path fill-rule="evenodd" clip-rule="evenodd" d="M5.84405 3.35156L5.86717 3.75497L5.48172 3.70557C4.07868 3.51621 2.85294 2.87405 1.81222 1.79555L1.30342 1.26041L1.17237 1.65559C0.894845 2.5365 1.07215 3.46682 1.65033 4.09251C1.95869 4.43829 1.88931 4.48769 1.35739 4.28187C1.17237 4.216 1.01048 4.16661 0.995063 4.19131C0.941099 4.24894 1.12612 4.99813 1.27259 5.29451C1.47302 5.70615 1.8816 6.10956 2.32873 6.34831L2.70647 6.53767L2.25934 6.5459C1.82764 6.5459 1.81222 6.55413 1.85847 6.72702C2.01266 7.26216 2.62167 7.83022 3.30006 8.07721L3.77802 8.2501L3.36174 8.51355C2.74501 8.89226 2.02036 9.10632 1.29572 9.12278C0.948808 9.13101 0.663574 9.16395 0.663574 9.18864C0.663574 9.27097 1.60408 9.73201 2.15142 9.91313C3.79344 10.4483 5.74383 10.2178 7.20854 9.3039C8.24926 8.65351 9.28998 7.36095 9.77565 6.10956C10.0378 5.4427 10.2999 4.22424 10.2999 3.63971C10.2999 3.26099 10.323 3.2116 10.7547 2.75879C11.0091 2.49534 11.2481 2.20719 11.2943 2.12486C11.3714 1.96844 11.3637 1.96844 10.9706 2.1084C10.3153 2.35538 10.2228 2.32245 10.5466 1.95197C10.7855 1.68852 11.0708 1.21102 11.0708 1.07106C11.0708 1.04636 10.9551 1.08752 10.8241 1.16162C10.6853 1.24395 10.377 1.36744 10.1457 1.44153L9.7294 1.58149L9.35166 1.30981C9.14351 1.16162 8.85057 0.996962 8.69639 0.947565C8.30323 0.832305 7.70192 0.848771 7.34731 0.980496C6.38368 1.35097 5.77466 2.30598 5.84405 3.35156Z" fill="#0017B7"/>
</svg>
